<svg width="104" height="30" viewBox="0 0 104 30" fill="none" xmlns="http://www.w3.org/2000/svg">
<g id="BACH">
<path d="M6.66934 30L0 24.6741L7.16643 6.03329L6.37937 3.07906C11.2675 0.998612 16.8183 0.124827 21.9135 0L24.8133 5.78363C23.6534 9.19556 21.5407 12.1914 18.9724 14.9376L24.7304 14.0222L26.0974 20.2219C20.9194 28.086 14.5814 29.8336 6.66934 30ZM11.9717 15.8114C14.9128 12.982 17.4811 9.65326 19.4281 5.6172L13.2973 7.23994L6.87646 24.7157C12.2202 24.258 17.0255 22.4272 20.4223 18.1831L12.6345 19.5978L11.9717 15.8114Z" fill="#ADFCA9"/>
<path d="M40.696 28.7101L41.6487 21.3037L33.0739 23.5506L29.3042 29.9584L24.4162 26.2968L40.5717 0L50.2236 3.66158L47.4067 29.8752L40.696 28.7101ZM36.0979 18.3911L42.2287 16.9764L43.5543 5.57559L36.0979 18.3911Z" fill="#ADFCA9"/>
<path d="M72.3427 25.3398L60.4538 30L51.9204 26.6713C51.9204 13.9806 57.637 1.99723 68.5316 0C71.6798 1.08183 75.1181 2.70458 77.3136 4.53537L73.3783 16.0194L67.8688 14.5215L70.7271 4.90985C62.8564 7.40638 59.5839 14.896 58.6726 24.5076L70.8928 20.0971L72.3427 25.3398Z" fill="#ADFCA9"/>
<path d="M94.1824 29.9584L87.803 27.2538L91.1584 18.5576L83.7849 20.4716L80.4295 29.9584L74.0915 27.2538L84.6133 0.0416083L90.2885 2.12205L85.6075 15.2705L93.0639 13.6061L98.3248 0.0416083L104 2.12205L94.1824 29.9584Z" fill="#ADFCA9"/>
</g>
</svg>
