<svg width="96" height="96" viewBox="0 0 96 96" fill="none" xmlns="http://www.w3.org/2000/svg">
<g id="PauseCircle">
<path id="Vector" d="M48 9C40.2865 9 32.7463 11.2873 26.3328 15.5727C19.9193 19.8581 14.9205 25.949 11.9687 33.0753C9.0169 40.2017 8.24457 48.0433 9.74939 55.6085C11.2542 63.1738 14.9686 70.1229 20.4229 75.5772C25.8771 81.0314 32.8262 84.7458 40.3915 86.2506C47.9568 87.7554 55.7984 86.9831 62.9247 84.0313C70.051 81.0795 76.142 76.0808 80.4273 69.6672C84.7127 63.2537 87 55.7135 87 48C86.9891 37.6599 82.8767 27.7464 75.5651 20.4349C68.2536 13.1233 58.3401 9.01092 48 9ZM48 81C41.4732 81 35.093 79.0646 29.6662 75.4385C24.2394 71.8124 20.0097 66.6585 17.512 60.6286C15.0143 54.5986 14.3608 47.9634 15.6341 41.562C16.9074 35.1606 20.0504 29.2806 24.6655 24.6655C29.2806 20.0503 35.1607 16.9074 41.562 15.6341C47.9634 14.3608 54.5986 15.0143 60.6286 17.512C66.6585 20.0097 71.8124 24.2394 75.4385 29.6662C79.0646 35.093 81 41.4732 81 48C80.9901 56.7491 77.5101 65.137 71.3236 71.3236C65.137 77.5101 56.7491 80.9901 48 81ZM42 36V60C42 60.7956 41.6839 61.5587 41.1213 62.1213C40.5587 62.6839 39.7957 63 39 63C38.2044 63 37.4413 62.6839 36.8787 62.1213C36.3161 61.5587 36 60.7956 36 60V36C36 35.2044 36.3161 34.4413 36.8787 33.8787C37.4413 33.3161 38.2044 33 39 33C39.7957 33 40.5587 33.3161 41.1213 33.8787C41.6839 34.4413 42 35.2044 42 36ZM60 36V60C60 60.7956 59.6839 61.5587 59.1213 62.1213C58.5587 62.6839 57.7957 63 57 63C56.2044 63 55.4413 62.6839 54.8787 62.1213C54.3161 61.5587 54 60.7956 54 60V36C54 35.2044 54.3161 34.4413 54.8787 33.8787C55.4413 33.3161 56.2044 33 57 33C57.7957 33 58.5587 33.3161 59.1213 33.8787C59.6839 34.4413 60 35.2044 60 36Z" fill="#ADFCA9"/>
</g>
</svg>
