<svg width="96" height="96" viewBox="0 0 96 96" fill="none" xmlns="http://www.w3.org/2000/svg">
<g id="PlayCircle">
<path id="Vector" d="M48 9C40.2865 9 32.7463 11.2873 26.3328 15.5727C19.9193 19.8581 14.9205 25.949 11.9687 33.0753C9.0169 40.2017 8.24457 48.0433 9.74939 55.6085C11.2542 63.1738 14.9686 70.1229 20.4229 75.5772C25.8771 81.0314 32.8262 84.7458 40.3915 86.2506C47.9568 87.7554 55.7984 86.9831 62.9247 84.0313C70.051 81.0795 76.142 76.0808 80.4273 69.6672C84.7127 63.2537 87 55.7135 87 48C86.9891 37.6599 82.8767 27.7464 75.5651 20.4349C68.2536 13.1233 58.3401 9.01092 48 9ZM48 81C41.4732 81 35.093 79.0646 29.6662 75.4385C24.2394 71.8124 20.0097 66.6585 17.512 60.6286C15.0143 54.5986 14.3608 47.9634 15.6341 41.562C16.9074 35.1606 20.0504 29.2806 24.6655 24.6655C29.2806 20.0503 35.1607 16.9074 41.562 15.6341C47.9634 14.3608 54.5986 15.0143 60.6286 17.512C66.6585 20.0097 71.8124 24.2394 75.4385 29.6662C79.0646 35.093 81 41.4732 81 48C80.9901 56.7491 77.5101 65.137 71.3236 71.3236C65.137 77.5101 56.7491 80.9901 48 81ZM61.665 45.5025L43.665 33.5025C43.2131 33.201 42.6878 33.0279 42.1452 33.0016C41.6026 32.9753 41.063 33.0968 40.5841 33.3532C40.1051 33.6096 39.7048 33.9913 39.4258 34.4574C39.1468 34.9236 38.9997 35.4567 39 36V60C38.9997 60.5433 39.1468 61.0764 39.4258 61.5426C39.7048 62.0087 40.1051 62.3904 40.5841 62.6468C41.063 62.9032 41.6026 63.0247 42.1452 62.9984C42.6878 62.9721 43.2131 62.799 43.665 62.4975L61.665 50.4975C62.0765 50.2236 62.414 49.8524 62.6474 49.4166C62.8808 48.9809 63.0029 48.4943 63.0029 48C63.0029 47.5057 62.8808 47.0191 62.6474 46.5834C62.414 46.1476 62.0765 45.7764 61.665 45.5025ZM45 54.3938V41.625L54.5925 48L45 54.3938Z" fill="#ADFCA9"/>
</g>
</svg>
