<svg width="46" height="46" viewBox="0 0 46 46" fill="none" xmlns="http://www.w3.org/2000/svg">
<path id="Vector" d="M33.0979 16.4406C33.2624 16.6049 33.3929 16.8 33.4819 17.0148C33.571 17.2296 33.6168 17.4598 33.6168 17.6923C33.6168 17.9248 33.571 18.155 33.4819 18.3698C33.3929 18.5846 33.2624 18.7797 33.0979 18.944L20.7133 31.3286C20.549 31.4931 20.3538 31.6236 20.1391 31.7127C19.9243 31.8017 19.694 31.8475 19.4615 31.8475C19.229 31.8475 18.9988 31.8017 18.784 31.7127C18.5693 31.6236 18.3741 31.4931 18.2098 31.3286L12.9021 26.021C12.5701 25.689 12.3836 25.2387 12.3836 24.7692C12.3836 24.2997 12.5701 23.8495 12.9021 23.5175C13.2341 23.1855 13.6844 22.999 14.1539 22.999C14.6233 22.999 15.0736 23.1855 15.4056 23.5175L19.4615 27.5757L30.5944 16.4406C30.7587 16.2761 30.9539 16.1456 31.1686 16.0565C31.3834 15.9675 31.6137 15.9217 31.8462 15.9217C32.0787 15.9217 32.3089 15.9675 32.5237 16.0565C32.7384 16.1456 32.9336 16.2761 33.0979 16.4406ZM46 23C46 27.549 44.6511 31.9958 42.1238 35.7781C39.5965 39.5604 36.0044 42.5084 31.8017 44.2492C27.599 45.99 22.9745 46.4455 18.5129 45.558C14.0514 44.6706 9.95316 42.4801 6.73655 39.2634C3.51995 36.0468 1.32941 31.9486 0.441949 27.4871C-0.445511 23.0255 0.00996554 18.401 1.75078 14.1983C3.4916 9.99558 6.43956 6.40347 10.2219 3.8762C14.0042 1.34893 18.451 0 23 0C29.098 0.0064396 34.9444 2.43171 39.2563 6.74365C43.5683 11.0556 45.9936 16.902 46 23ZM42.4615 23C42.4615 19.1509 41.3201 15.3882 39.1817 12.1877C37.0432 8.98731 34.0037 6.49288 30.4476 5.01988C26.8915 3.54688 22.9784 3.16148 19.2032 3.91241C15.4281 4.66334 11.9604 6.51687 9.23862 9.23861C6.51688 11.9604 4.66335 15.4281 3.91242 19.2032C3.16149 22.9784 3.54689 26.8915 5.01989 30.4476C6.49289 34.0037 8.98732 37.0432 12.1878 39.1817C15.3882 41.3201 19.1509 42.4615 23 42.4615C28.1597 42.4557 33.1064 40.4034 36.7549 36.7549C40.4034 33.1064 42.4557 28.1597 42.4615 23Z" fill="#ADFCA9"/>
</svg>
